<svg width="13" height="13" viewBox="0 0 13 13" fill="none" xmlns="http://www.w3.org/2000/svg">
<path d="M5.71847 0.0275555C4.54682 0.159716 3.33959 0.670567 2.39159 1.43303C2.08661 1.67702 1.51984 2.26157 1.2911 2.56656C0.75738 3.27819 0.373607 4.0864 0.1652 4.93274C0.0203324 5.52238 0 5.71807 0 6.4907C0 7.23792 0.0152493 7.39804 0.13216 7.92668C0.587097 9.99549 2.09169 11.772 4.04614 12.5497C4.86452 12.8751 5.58377 13.0098 6.49365 13.0098C7.56872 13.0098 8.4913 12.7963 9.40117 12.3388C10.0925 11.9906 10.6237 11.6017 11.1701 11.0375C12.1689 10.0082 12.7865 8.72472 12.9619 7.31671C13.0127 6.90243 13.0127 6.10439 12.9619 5.69012C12.817 4.52863 12.3367 3.37731 11.6098 2.45473C11.4242 2.21837 10.7787 1.57281 10.5423 1.38728C9.6172 0.657859 8.47097 0.180048 7.30694 0.0351801C6.95875 -0.00802612 6.06413 -0.0131092 5.71847 0.0275555ZM7.23069 1.07975C8.54467 1.25512 9.81544 1.95405 10.6669 2.97066C11.193 3.59843 11.5894 4.36089 11.7877 5.11827C11.9249 5.64945 11.9453 5.80957 11.9453 6.50341C11.9453 7.0168 11.9351 7.20234 11.8995 7.39295C11.5666 9.16695 10.5245 10.5826 8.96657 11.3781C8.16852 11.7847 7.39589 11.9703 6.49365 11.9703C5.58631 11.9677 4.81877 11.7847 4.02072 11.3781C2.46276 10.5826 1.42072 9.16695 1.08778 7.39295C1.02424 7.0473 1.02424 5.95952 1.08778 5.61387C1.42072 3.83733 2.46276 2.42423 4.02326 1.62619C5.02209 1.11788 6.11241 0.932345 7.23069 1.07975Z" fill="#151515"/>
<path d="M5.98533 4.86089V6.00459H4.84163H3.69794V6.51289V7.0212H4.84163H5.98533V8.1649V9.30859H6.49364H7.00194V8.1649V7.0212H8.14564H9.28933V6.51289V6.00459H8.14564H7.00194V4.86089V3.7172H6.49364H5.98533V4.86089Z" fill="#151515"/>
</svg>
