<svg width="13" height="12" viewBox="0 0 13 12" fill="none" xmlns="http://www.w3.org/2000/svg">
<path d="M1.10857 0.0447268C0.588244 0.185352 0.177059 0.572071 0.0425352 1.04785C-0.0158429 1.2541 -0.0133048 5.30645 0.0450734 5.51504C0.179597 5.99785 0.616164 6.40098 1.13649 6.5252C1.37 6.58145 4.72802 6.58145 4.96153 6.5252C5.48947 6.39863 5.91843 6.00254 6.05549 5.51504C6.09102 5.39082 6.0961 5.10488 6.0961 3.28145C6.0961 0.961133 6.10371 1.0666 5.92604 0.740821C5.80421 0.515821 5.5377 0.269727 5.29403 0.157227C4.94884 -0.00449181 5.00214 0.000195503 3.03505 0.00253963C1.42331 0.00253963 1.24817 0.00722694 1.10857 0.0447268ZM4.78894 0.998633C4.90569 1.05723 4.95392 1.1041 5.01991 1.21895C5.0656 1.29629 5.06814 1.39238 5.06814 3.28145C5.06814 5.17051 5.0656 5.2666 5.01991 5.34395C4.95392 5.45879 4.90569 5.50566 4.78894 5.56426C4.68741 5.61348 4.67472 5.61348 3.05028 5.61348C1.42584 5.61348 1.41315 5.61348 1.31163 5.56426C1.19487 5.50566 1.14664 5.45879 1.08065 5.34395C1.03496 5.2666 1.03243 5.17051 1.03243 3.28145C1.03243 1.39238 1.03496 1.29629 1.08065 1.21895C1.16949 1.0666 1.27102 0.993946 1.45123 0.958789C1.49945 0.949414 2.24822 0.944727 3.11374 0.944727C4.66964 0.949414 4.68741 0.949414 4.78894 0.998633Z" fill="#2463EB"/>
<path d="M8.01238 0.0447268C7.49205 0.185352 7.08087 0.572071 6.94634 1.04785C6.88797 1.25176 6.8905 3.43379 6.94888 3.64004C7.08341 4.12285 7.51997 4.52598 8.0403 4.6502C8.27381 4.70645 11.6318 4.70645 11.8653 4.6502C12.3933 4.52363 12.8222 4.12754 12.9593 3.64004C12.9948 3.52051 12.9999 3.3166 12.9999 2.34395C12.9999 1.06191 12.9999 1.0502 12.8298 0.740821C12.708 0.515821 12.4415 0.269727 12.1978 0.157227C11.8526 -0.00449181 11.906 0.000195503 9.93886 0.00253916C8.32711 0.00253916 8.15198 0.00722694 8.01238 0.0447268ZM11.6927 0.998633C11.8095 1.05723 11.8577 1.1041 11.9237 1.21895C11.9694 1.29629 11.9719 1.36895 11.9719 2.34395C11.9719 3.36582 11.9719 3.38926 11.9186 3.48066C11.8552 3.58848 11.8044 3.63301 11.6801 3.69395C11.5963 3.73613 11.5049 3.73848 9.95409 3.73848C8.40326 3.73848 8.31189 3.73613 8.22813 3.69395C8.10375 3.63301 8.05299 3.58848 7.98954 3.48066C7.93623 3.38926 7.93623 3.36582 7.93623 2.34395C7.93623 1.36895 7.93877 1.29629 7.98446 1.21895C8.0733 1.0666 8.17482 0.993946 8.35503 0.958789C8.40326 0.949414 9.15202 0.944727 10.0175 0.944727C11.5734 0.949414 11.5912 0.949414 11.6927 0.998633Z" fill="#2463EB"/>
<path d="M8.01238 5.48223C7.49205 5.62285 7.08087 6.00957 6.94634 6.48535C6.88797 6.6916 6.8905 10.7439 6.94888 10.9525C7.08341 11.4354 7.51997 11.8385 8.0403 11.9627C8.27381 12.0189 11.6318 12.0189 11.8653 11.9627C12.3933 11.8361 12.8222 11.44 12.9593 10.9525C12.9948 10.8283 12.9999 10.5424 12.9999 8.71895C12.9999 6.39863 13.0075 6.5041 12.8298 6.17832C12.708 5.95332 12.4415 5.70723 12.1978 5.59473C11.8526 5.43301 11.906 5.4377 9.93886 5.44004C8.32711 5.44004 8.15198 5.44473 8.01238 5.48223ZM11.6927 6.43613C11.8095 6.49473 11.8577 6.5416 11.9237 6.65645C11.9694 6.73379 11.9719 6.82988 11.9719 8.71895C11.9719 10.608 11.9694 10.7041 11.9237 10.7814C11.8577 10.8963 11.8095 10.9432 11.6927 11.0018C11.5912 11.051 11.5785 11.051 9.95409 11.051C8.32965 11.051 8.31696 11.051 8.21543 11.0018C8.09868 10.9432 8.05045 10.8963 7.98446 10.7814C7.93877 10.7041 7.93623 10.608 7.93623 8.71895C7.93623 6.82988 7.93877 6.73379 7.98446 6.65645C8.0733 6.5041 8.17482 6.43145 8.35503 6.39629C8.40326 6.38691 9.15202 6.38223 10.0175 6.38223C11.5734 6.38691 11.5912 6.38691 11.6927 6.43613Z" fill="#2463EB"/>
<path d="M1.10857 7.35723C0.588244 7.49785 0.177059 7.88457 0.0425352 8.36035C-0.0158429 8.56426 -0.0133048 10.7463 0.0450734 10.9525C0.179597 11.4354 0.616164 11.8385 1.13649 11.9627C1.37 12.0189 4.72802 12.0189 4.96153 11.9627C5.48947 11.8361 5.91843 11.44 6.05549 10.9525C6.1164 10.7416 6.1164 8.57129 6.05549 8.36035C5.91843 7.87285 5.48947 7.47676 4.96153 7.35019C4.82701 7.31738 4.56558 7.3127 3.03505 7.31504C1.42331 7.31504 1.24817 7.31973 1.10857 7.35723ZM4.78894 8.31113C4.90569 8.36973 4.95392 8.4166 5.01991 8.53145C5.0656 8.60879 5.06814 8.68145 5.06814 9.65645C5.06814 10.6783 5.06814 10.7018 5.01483 10.7932C4.95138 10.901 4.90062 10.9455 4.77624 11.0064C4.69248 11.0486 4.60111 11.051 3.05028 11.051C1.49945 11.051 1.40808 11.0486 1.32432 11.0064C1.19995 10.9455 1.14918 10.901 1.08573 10.7932C1.03243 10.7018 1.03243 10.6783 1.03243 9.65645C1.03243 8.68145 1.03496 8.60879 1.08065 8.53145C1.16949 8.3791 1.27102 8.30645 1.45123 8.27129C1.49945 8.26191 2.24822 8.25723 3.11374 8.25723C4.66964 8.26191 4.68741 8.26191 4.78894 8.31113Z" fill="#2463EB"/>
</svg>
